<mxfile host="app.diagrams.net" modified="2023-04-13T11:24:12.556Z" agent="Mozilla/5.0 (Windows NT 10.0; Win64; x64) AppleWebKit/537.36 (KHTML, like Gecko) Chrome/111.0.0.0 Safari/537.36 OPR/97.0.0.0" etag="kajIp3vjNoRJAhP7yM1E" version="21.1.6" type="device">
  <diagram name="Strona-1" id="lWUv9a3E_Xjh7hGZNyNB">
    <mxGraphModel dx="1010" dy="1742" grid="1" gridSize="10" guides="1" tooltips="1" connect="1" arrows="1" fold="1" page="1" pageScale="1" pageWidth="827" pageHeight="1169" math="0" shadow="0">
      <root>
        <mxCell id="0" />
        <mxCell id="1" parent="0" />
        <mxCell id="bwUJ5pAkCD7k6w4beoDn-1" value="UML Activity Diagram" style="text;html=1;strokeColor=none;fillColor=none;align=center;verticalAlign=middle;whiteSpace=wrap;rounded=0;" parent="1" vertex="1">
          <mxGeometry x="60" y="-1150" width="230" height="30" as="geometry" />
        </mxCell>
        <mxCell id="bwUJ5pAkCD7k6w4beoDn-2" value="Action" style="text;html=1;strokeColor=none;fillColor=none;align=center;verticalAlign=middle;whiteSpace=wrap;rounded=0;" parent="1" vertex="1">
          <mxGeometry x="260" y="-1150" width="60" height="30" as="geometry" />
        </mxCell>
        <mxCell id="bwUJ5pAkCD7k6w4beoDn-3" value="" style="shape=waypoint;sketch=0;fillStyle=solid;size=6;pointerEvents=1;points=[];fillColor=none;resizable=0;rotatable=0;perimeter=centerPerimeter;snapToPoint=1;" parent="1" vertex="1">
          <mxGeometry x="100" y="-1090" width="20" height="20" as="geometry" />
        </mxCell>
        <mxCell id="bwUJ5pAkCD7k6w4beoDn-7" value="Początkowa aktywność" style="text;html=1;strokeColor=none;fillColor=none;align=center;verticalAlign=middle;whiteSpace=wrap;rounded=0;imageWidth=50;imageHeight=50;arcSize=50;" parent="1" vertex="1">
          <mxGeometry x="130" y="-1090" width="160" height="20" as="geometry" />
        </mxCell>
        <mxCell id="bwUJ5pAkCD7k6w4beoDn-10" value="" style="ellipse;whiteSpace=wrap;html=1;aspect=fixed;" parent="1" vertex="1">
          <mxGeometry x="100" y="-1040" width="20" height="20" as="geometry" />
        </mxCell>
        <mxCell id="bwUJ5pAkCD7k6w4beoDn-11" value="" style="shape=waypoint;sketch=0;fillStyle=solid;size=6;pointerEvents=1;points=[];fillColor=none;resizable=0;rotatable=0;perimeter=centerPerimeter;snapToPoint=1;" parent="1" vertex="1">
          <mxGeometry x="100" y="-1040" width="20" height="20" as="geometry" />
        </mxCell>
        <mxCell id="bwUJ5pAkCD7k6w4beoDn-12" value="Koniec aktywności&amp;nbsp;" style="text;html=1;strokeColor=none;fillColor=none;align=center;verticalAlign=middle;whiteSpace=wrap;rounded=0;" parent="1" vertex="1">
          <mxGeometry x="160" y="-1040" width="60" height="30" as="geometry" />
        </mxCell>
        <mxCell id="bwUJ5pAkCD7k6w4beoDn-13" value="" style="shape=sumEllipse;perimeter=ellipsePerimeter;whiteSpace=wrap;html=1;backgroundOutline=1;" parent="1" vertex="1">
          <mxGeometry x="100" y="-995" width="20" height="20" as="geometry" />
        </mxCell>
        <mxCell id="bwUJ5pAkCD7k6w4beoDn-14" value="" style="shape=ext;double=1;rounded=1;whiteSpace=wrap;html=1;" parent="1" vertex="1">
          <mxGeometry x="340" y="-1100" width="100" height="40" as="geometry" />
        </mxCell>
        <mxCell id="bwUJ5pAkCD7k6w4beoDn-15" value="Aktwność def." style="text;html=1;strokeColor=none;fillColor=none;align=center;verticalAlign=middle;whiteSpace=wrap;rounded=0;" parent="1" vertex="1">
          <mxGeometry x="450" y="-1095" width="60" height="30" as="geometry" />
        </mxCell>
        <mxCell id="bwUJ5pAkCD7k6w4beoDn-16" value="" style="endArrow=classic;html=1;rounded=0;" parent="1" edge="1">
          <mxGeometry width="50" height="50" relative="1" as="geometry">
            <mxPoint x="330" y="-1040" as="sourcePoint" />
            <mxPoint x="470" y="-1040" as="targetPoint" />
          </mxGeometry>
        </mxCell>
        <mxCell id="bwUJ5pAkCD7k6w4beoDn-17" value="Przejście między aktywnościami" style="text;html=1;strokeColor=none;fillColor=none;align=center;verticalAlign=middle;whiteSpace=wrap;rounded=0;" parent="1" vertex="1">
          <mxGeometry x="450" y="-1060" width="230" height="30" as="geometry" />
        </mxCell>
        <mxCell id="bwUJ5pAkCD7k6w4beoDn-18" value="" style="rhombus;whiteSpace=wrap;html=1;" parent="1" vertex="1">
          <mxGeometry x="350" y="-1020" width="50" height="50" as="geometry" />
        </mxCell>
        <mxCell id="bwUJ5pAkCD7k6w4beoDn-19" value="Warunek" style="text;html=1;strokeColor=none;fillColor=none;align=center;verticalAlign=middle;whiteSpace=wrap;rounded=0;" parent="1" vertex="1">
          <mxGeometry x="414" y="-1010" width="60" height="30" as="geometry" />
        </mxCell>
        <mxCell id="bwUJ5pAkCD7k6w4beoDn-20" value="Central Idea" style="ellipse;whiteSpace=wrap;html=1;align=center;newEdgeStyle={&quot;edgeStyle&quot;:&quot;entityRelationEdgeStyle&quot;,&quot;startArrow&quot;:&quot;none&quot;,&quot;endArrow&quot;:&quot;none&quot;,&quot;segment&quot;:10,&quot;curved&quot;:1,&quot;sourcePerimeterSpacing&quot;:0,&quot;targetPerimeterSpacing&quot;:0};treeFolding=1;treeMoving=1;" parent="1" vertex="1">
          <mxGeometry x="70" y="-880" width="100" height="40" as="geometry" />
        </mxCell>
        <mxCell id="bwUJ5pAkCD7k6w4beoDn-21" value="Sub Topic" style="whiteSpace=wrap;html=1;rounded=1;arcSize=50;align=center;verticalAlign=middle;strokeWidth=1;autosize=1;spacing=4;treeFolding=1;treeMoving=1;newEdgeStyle={&quot;edgeStyle&quot;:&quot;entityRelationEdgeStyle&quot;,&quot;startArrow&quot;:&quot;none&quot;,&quot;endArrow&quot;:&quot;none&quot;,&quot;segment&quot;:10,&quot;curved&quot;:1,&quot;sourcePerimeterSpacing&quot;:0,&quot;targetPerimeterSpacing&quot;:0};" parent="1" vertex="1">
          <mxGeometry x="200" y="-900" width="100" height="30" as="geometry" />
        </mxCell>
        <mxCell id="bwUJ5pAkCD7k6w4beoDn-22" value="" style="edgeStyle=entityRelationEdgeStyle;startArrow=none;endArrow=none;segment=10;curved=1;sourcePerimeterSpacing=0;targetPerimeterSpacing=0;rounded=0;" parent="1" target="bwUJ5pAkCD7k6w4beoDn-21" edge="1">
          <mxGeometry relative="1" as="geometry">
            <mxPoint x="170" y="-858" as="sourcePoint" />
          </mxGeometry>
        </mxCell>
        <mxCell id="bwUJ5pAkCD7k6w4beoDn-23" value="Koniec przepływu" style="text;html=1;strokeColor=none;fillColor=none;align=center;verticalAlign=middle;whiteSpace=wrap;rounded=0;" parent="1" vertex="1">
          <mxGeometry x="130" y="-1000" width="60" height="30" as="geometry" />
        </mxCell>
        <mxCell id="bwUJ5pAkCD7k6w4beoDn-24" value="Sub Topic" style="whiteSpace=wrap;html=1;rounded=1;arcSize=50;align=center;verticalAlign=middle;strokeWidth=1;autosize=1;spacing=4;treeFolding=1;treeMoving=1;newEdgeStyle={&quot;edgeStyle&quot;:&quot;entityRelationEdgeStyle&quot;,&quot;startArrow&quot;:&quot;none&quot;,&quot;endArrow&quot;:&quot;none&quot;,&quot;segment&quot;:10,&quot;curved&quot;:1,&quot;sourcePerimeterSpacing&quot;:0,&quot;targetPerimeterSpacing&quot;:0};" parent="1" vertex="1">
          <mxGeometry x="200" y="-850" width="100" height="30" as="geometry" />
        </mxCell>
        <mxCell id="bwUJ5pAkCD7k6w4beoDn-25" value="" style="edgeStyle=entityRelationEdgeStyle;startArrow=none;endArrow=none;segment=10;curved=1;sourcePerimeterSpacing=0;targetPerimeterSpacing=0;rounded=0;exitX=1;exitY=1;exitDx=0;exitDy=0;" parent="1" source="bwUJ5pAkCD7k6w4beoDn-20" target="bwUJ5pAkCD7k6w4beoDn-24" edge="1">
          <mxGeometry relative="1" as="geometry">
            <mxPoint x="170" y="-808" as="sourcePoint" />
          </mxGeometry>
        </mxCell>
        <mxCell id="bwUJ5pAkCD7k6w4beoDn-26" value="Rozdzielenie Aktywności" style="text;html=1;strokeColor=none;fillColor=none;align=center;verticalAlign=middle;whiteSpace=wrap;rounded=0;" parent="1" vertex="1">
          <mxGeometry x="280" y="-875" width="160" height="30" as="geometry" />
        </mxCell>
        <mxCell id="bwUJ5pAkCD7k6w4beoDn-27" value="" style="endArrow=classic;html=1;rounded=0;" parent="1" edge="1">
          <mxGeometry width="50" height="50" relative="1" as="geometry">
            <mxPoint x="510" y="-925" as="sourcePoint" />
            <mxPoint x="580" y="-885" as="targetPoint" />
          </mxGeometry>
        </mxCell>
        <mxCell id="bwUJ5pAkCD7k6w4beoDn-28" value="" style="endArrow=classic;html=1;rounded=0;" parent="1" edge="1">
          <mxGeometry width="50" height="50" relative="1" as="geometry">
            <mxPoint x="510" y="-815" as="sourcePoint" />
            <mxPoint x="580" y="-865" as="targetPoint" />
          </mxGeometry>
        </mxCell>
        <mxCell id="bwUJ5pAkCD7k6w4beoDn-29" value="" style="rounded=0;whiteSpace=wrap;html=1;" parent="1" vertex="1">
          <mxGeometry x="580" y="-935" width="20" height="140" as="geometry" />
        </mxCell>
        <mxCell id="bwUJ5pAkCD7k6w4beoDn-30" value="" style="endArrow=classic;html=1;rounded=0;exitX=1;exitY=0.5;exitDx=0;exitDy=0;" parent="1" source="bwUJ5pAkCD7k6w4beoDn-29" edge="1">
          <mxGeometry width="50" height="50" relative="1" as="geometry">
            <mxPoint x="840" y="-1045" as="sourcePoint" />
            <mxPoint x="650" y="-865" as="targetPoint" />
          </mxGeometry>
        </mxCell>
        <mxCell id="bwUJ5pAkCD7k6w4beoDn-31" value="Połączenie aktywności" style="text;html=1;strokeColor=none;fillColor=none;align=center;verticalAlign=middle;whiteSpace=wrap;rounded=0;" parent="1" vertex="1">
          <mxGeometry x="650" y="-880" width="130" height="30" as="geometry" />
        </mxCell>
        <mxCell id="bwUJ5pAkCD7k6w4beoDn-32" value="" style="rounded=0;whiteSpace=wrap;html=1;" parent="1" vertex="1">
          <mxGeometry x="180" y="-900" width="10" height="90" as="geometry" />
        </mxCell>
        <mxCell id="bwUJ5pAkCD7k6w4beoDn-35" value="nazwa aktywności" style="text;html=1;strokeColor=none;fillColor=none;align=center;verticalAlign=middle;whiteSpace=wrap;rounded=0;" parent="1" vertex="1">
          <mxGeometry x="350" y="-1095" width="80" height="30" as="geometry" />
        </mxCell>
        <mxCell id="bwUJ5pAkCD7k6w4beoDn-36" value="" style="shape=waypoint;sketch=0;fillStyle=solid;size=6;pointerEvents=1;points=[];fillColor=none;resizable=0;rotatable=0;perimeter=centerPerimeter;snapToPoint=1;" parent="1" vertex="1">
          <mxGeometry x="380" y="-740" width="20" height="20" as="geometry" />
        </mxCell>
        <mxCell id="bwUJ5pAkCD7k6w4beoDn-37" value="" style="endArrow=classic;html=1;rounded=0;exitX=0.32;exitY=1.13;exitDx=0;exitDy=0;exitPerimeter=0;" parent="1" source="bwUJ5pAkCD7k6w4beoDn-36" edge="1">
          <mxGeometry width="50" height="50" relative="1" as="geometry">
            <mxPoint x="640" y="-610" as="sourcePoint" />
            <mxPoint x="390" y="-710" as="targetPoint" />
          </mxGeometry>
        </mxCell>
        <mxCell id="bwUJ5pAkCD7k6w4beoDn-38" value="" style="rounded=1;whiteSpace=wrap;html=1;" parent="1" vertex="1">
          <mxGeometry x="300" y="-710" width="180" height="40" as="geometry" />
        </mxCell>
        <mxCell id="bwUJ5pAkCD7k6w4beoDn-39" value="Wpisanie adresu URL" style="text;html=1;strokeColor=none;fillColor=none;align=center;verticalAlign=middle;whiteSpace=wrap;rounded=0;" parent="1" vertex="1">
          <mxGeometry x="300" y="-705" width="160" height="30" as="geometry" />
        </mxCell>
        <mxCell id="bwUJ5pAkCD7k6w4beoDn-40" value="" style="endArrow=classic;html=1;rounded=0;exitX=0.5;exitY=1;exitDx=0;exitDy=0;" parent="1" source="bwUJ5pAkCD7k6w4beoDn-38" target="bwUJ5pAkCD7k6w4beoDn-41" edge="1">
          <mxGeometry width="50" height="50" relative="1" as="geometry">
            <mxPoint x="640" y="-620" as="sourcePoint" />
            <mxPoint x="390" y="-650" as="targetPoint" />
          </mxGeometry>
        </mxCell>
        <mxCell id="bwUJ5pAkCD7k6w4beoDn-41" value="" style="rounded=1;whiteSpace=wrap;html=1;" parent="1" vertex="1">
          <mxGeometry x="300" y="-654" width="180" height="44" as="geometry" />
        </mxCell>
        <mxCell id="bwUJ5pAkCD7k6w4beoDn-42" value="Otwarcie strony sklepu" style="text;html=1;strokeColor=none;fillColor=none;align=center;verticalAlign=middle;whiteSpace=wrap;rounded=0;" parent="1" vertex="1">
          <mxGeometry x="290" y="-647" width="190" height="30" as="geometry" />
        </mxCell>
        <mxCell id="bwUJ5pAkCD7k6w4beoDn-43" value="" style="endArrow=classic;html=1;rounded=0;exitX=0.5;exitY=1;exitDx=0;exitDy=0;" parent="1" source="bwUJ5pAkCD7k6w4beoDn-41" edge="1">
          <mxGeometry width="50" height="50" relative="1" as="geometry">
            <mxPoint x="380" y="-580" as="sourcePoint" />
            <mxPoint x="390" y="-590" as="targetPoint" />
          </mxGeometry>
        </mxCell>
        <mxCell id="bwUJ5pAkCD7k6w4beoDn-45" value="Logowanie" style="text;html=1;strokeColor=none;fillColor=none;align=center;verticalAlign=middle;whiteSpace=wrap;rounded=0;" parent="1" vertex="1">
          <mxGeometry x="395" y="-610" width="60" height="30" as="geometry" />
        </mxCell>
        <mxCell id="bwUJ5pAkCD7k6w4beoDn-46" value="" style="rhombus;whiteSpace=wrap;html=1;" parent="1" vertex="1">
          <mxGeometry x="360" y="-590" width="60" height="50" as="geometry" />
        </mxCell>
        <mxCell id="bwUJ5pAkCD7k6w4beoDn-47" value="" style="endArrow=classic;html=1;rounded=0;exitX=1;exitY=0.5;exitDx=0;exitDy=0;" parent="1" source="bwUJ5pAkCD7k6w4beoDn-46" edge="1">
          <mxGeometry width="50" height="50" relative="1" as="geometry">
            <mxPoint x="640" y="-640" as="sourcePoint" />
            <mxPoint x="540" y="-565" as="targetPoint" />
          </mxGeometry>
        </mxCell>
        <mxCell id="bwUJ5pAkCD7k6w4beoDn-48" value="TAK" style="text;html=1;strokeColor=none;fillColor=none;align=center;verticalAlign=middle;whiteSpace=wrap;rounded=0;" parent="1" vertex="1">
          <mxGeometry x="440" y="-590" width="60" height="30" as="geometry" />
        </mxCell>
        <mxCell id="bwUJ5pAkCD7k6w4beoDn-49" value="" style="endArrow=classic;html=1;rounded=0;exitX=0;exitY=0.5;exitDx=0;exitDy=0;" parent="1" source="bwUJ5pAkCD7k6w4beoDn-46" edge="1">
          <mxGeometry width="50" height="50" relative="1" as="geometry">
            <mxPoint x="640" y="-640" as="sourcePoint" />
            <mxPoint x="330" y="-565" as="targetPoint" />
          </mxGeometry>
        </mxCell>
        <mxCell id="bwUJ5pAkCD7k6w4beoDn-51" value="NIE" style="text;html=1;strokeColor=none;fillColor=none;align=center;verticalAlign=middle;whiteSpace=wrap;rounded=0;" parent="1" vertex="1">
          <mxGeometry x="320" y="-590" width="60" height="30" as="geometry" />
        </mxCell>
        <mxCell id="bwUJ5pAkCD7k6w4beoDn-53" value="" style="rounded=1;whiteSpace=wrap;html=1;" parent="1" vertex="1">
          <mxGeometry x="300" y="-575" width="30" height="20" as="geometry" />
        </mxCell>
        <mxCell id="bwUJ5pAkCD7k6w4beoDn-54" value="" style="rounded=1;whiteSpace=wrap;html=1;" parent="1" vertex="1">
          <mxGeometry x="540" y="-590" width="120" height="40" as="geometry" />
        </mxCell>
        <mxCell id="bwUJ5pAkCD7k6w4beoDn-55" value="Klikniecie okna logowania" style="text;html=1;strokeColor=none;fillColor=none;align=center;verticalAlign=middle;whiteSpace=wrap;rounded=0;" parent="1" vertex="1">
          <mxGeometry x="550" y="-584" width="100" height="30" as="geometry" />
        </mxCell>
        <mxCell id="bwUJ5pAkCD7k6w4beoDn-56" value="" style="endArrow=classic;html=1;rounded=0;exitX=0.443;exitY=1.035;exitDx=0;exitDy=0;exitPerimeter=0;" parent="1" source="bwUJ5pAkCD7k6w4beoDn-54" edge="1">
          <mxGeometry width="50" height="50" relative="1" as="geometry">
            <mxPoint x="390" y="-610" as="sourcePoint" />
            <mxPoint x="593" y="-530" as="targetPoint" />
          </mxGeometry>
        </mxCell>
        <mxCell id="bwUJ5pAkCD7k6w4beoDn-57" value="" style="rounded=1;whiteSpace=wrap;html=1;" parent="1" vertex="1">
          <mxGeometry x="540" y="-530" width="120" height="30" as="geometry" />
        </mxCell>
        <mxCell id="bwUJ5pAkCD7k6w4beoDn-58" value="Otwarcie okna logowania" style="text;html=1;strokeColor=none;fillColor=none;align=center;verticalAlign=middle;whiteSpace=wrap;rounded=0;" parent="1" vertex="1">
          <mxGeometry x="550" y="-530" width="100" height="30" as="geometry" />
        </mxCell>
        <mxCell id="bwUJ5pAkCD7k6w4beoDn-59" value="" style="endArrow=classic;html=1;rounded=0;exitX=0.5;exitY=1;exitDx=0;exitDy=0;" parent="1" source="bwUJ5pAkCD7k6w4beoDn-58" edge="1">
          <mxGeometry width="50" height="50" relative="1" as="geometry">
            <mxPoint x="390" y="-420" as="sourcePoint" />
            <mxPoint x="600" y="-480" as="targetPoint" />
          </mxGeometry>
        </mxCell>
        <mxCell id="bwUJ5pAkCD7k6w4beoDn-60" value="" style="rounded=1;whiteSpace=wrap;html=1;" parent="1" vertex="1">
          <mxGeometry x="540" y="-480" width="120" height="40" as="geometry" />
        </mxCell>
        <mxCell id="bwUJ5pAkCD7k6w4beoDn-61" value="Wypełnienie danych logowania" style="text;html=1;strokeColor=none;fillColor=none;align=center;verticalAlign=middle;whiteSpace=wrap;rounded=0;" parent="1" vertex="1">
          <mxGeometry x="540" y="-475" width="120" height="30" as="geometry" />
        </mxCell>
        <mxCell id="bwUJ5pAkCD7k6w4beoDn-62" value="" style="endArrow=classic;html=1;rounded=0;exitX=0.5;exitY=1;exitDx=0;exitDy=0;" parent="1" source="bwUJ5pAkCD7k6w4beoDn-60" edge="1">
          <mxGeometry width="50" height="50" relative="1" as="geometry">
            <mxPoint x="390" y="-420" as="sourcePoint" />
            <mxPoint x="600" y="-420" as="targetPoint" />
          </mxGeometry>
        </mxCell>
        <mxCell id="bwUJ5pAkCD7k6w4beoDn-63" value="" style="rounded=1;whiteSpace=wrap;html=1;" parent="1" vertex="1">
          <mxGeometry x="530" y="-420" width="140" height="30" as="geometry" />
        </mxCell>
        <mxCell id="bwUJ5pAkCD7k6w4beoDn-64" value="Weryfikuje" style="text;html=1;strokeColor=none;fillColor=none;align=center;verticalAlign=middle;whiteSpace=wrap;rounded=0;" parent="1" vertex="1">
          <mxGeometry x="550" y="-425" width="110" height="30" as="geometry" />
        </mxCell>
        <mxCell id="bwUJ5pAkCD7k6w4beoDn-65" value="" style="endArrow=classic;html=1;rounded=0;" parent="1" target="bwUJ5pAkCD7k6w4beoDn-66" edge="1">
          <mxGeometry width="50" height="50" relative="1" as="geometry">
            <mxPoint x="600" y="-390" as="sourcePoint" />
            <mxPoint x="595" y="-370" as="targetPoint" />
          </mxGeometry>
        </mxCell>
        <mxCell id="bwUJ5pAkCD7k6w4beoDn-66" value="" style="html=1;whiteSpace=wrap;aspect=fixed;shape=isoRectangle;" parent="1" vertex="1">
          <mxGeometry x="560" y="-360" width="80" height="48" as="geometry" />
        </mxCell>
        <mxCell id="bwUJ5pAkCD7k6w4beoDn-69" value="" style="endArrow=classic;html=1;rounded=0;exitX=1.015;exitY=0.454;exitDx=0;exitDy=0;exitPerimeter=0;" parent="1" source="bwUJ5pAkCD7k6w4beoDn-66" edge="1">
          <mxGeometry width="50" height="50" relative="1" as="geometry">
            <mxPoint x="390" y="-420" as="sourcePoint" />
            <mxPoint x="670" y="-337.126530612245" as="targetPoint" />
          </mxGeometry>
        </mxCell>
        <mxCell id="bwUJ5pAkCD7k6w4beoDn-71" value="NIE" style="text;html=1;strokeColor=none;fillColor=none;align=center;verticalAlign=middle;whiteSpace=wrap;rounded=0;" parent="1" vertex="1">
          <mxGeometry x="620" y="-370" width="60" height="30" as="geometry" />
        </mxCell>
        <mxCell id="bwUJ5pAkCD7k6w4beoDn-72" value="" style="endArrow=classic;html=1;rounded=0;exitX=0.485;exitY=0.938;exitDx=0;exitDy=0;exitPerimeter=0;" parent="1" source="bwUJ5pAkCD7k6w4beoDn-66" edge="1">
          <mxGeometry width="50" height="50" relative="1" as="geometry">
            <mxPoint x="390" y="-420" as="sourcePoint" />
            <mxPoint x="600" y="-290" as="targetPoint" />
          </mxGeometry>
        </mxCell>
        <mxCell id="bwUJ5pAkCD7k6w4beoDn-73" value="TAK" style="text;html=1;strokeColor=none;fillColor=none;align=center;verticalAlign=middle;whiteSpace=wrap;rounded=0;" parent="1" vertex="1">
          <mxGeometry x="600" y="-320" width="60" height="30" as="geometry" />
        </mxCell>
        <mxCell id="bwUJ5pAkCD7k6w4beoDn-74" value="" style="rounded=1;whiteSpace=wrap;html=1;" parent="1" vertex="1">
          <mxGeometry x="540" y="-290" width="120" height="60" as="geometry" />
        </mxCell>
        <mxCell id="bwUJ5pAkCD7k6w4beoDn-75" value="Otwiera stronę sklepu" style="text;html=1;strokeColor=none;fillColor=none;align=center;verticalAlign=middle;whiteSpace=wrap;rounded=0;" parent="1" vertex="1">
          <mxGeometry x="560" y="-275" width="60" height="30" as="geometry" />
        </mxCell>
        <mxCell id="bwUJ5pAkCD7k6w4beoDn-76" value="" style="endArrow=classic;html=1;rounded=0;exitX=0.5;exitY=1;exitDx=0;exitDy=0;" parent="1" source="bwUJ5pAkCD7k6w4beoDn-74" edge="1">
          <mxGeometry width="50" height="50" relative="1" as="geometry">
            <mxPoint x="390" y="-440" as="sourcePoint" />
            <mxPoint x="600" y="-209.199951171875" as="targetPoint" />
          </mxGeometry>
        </mxCell>
        <mxCell id="bwUJ5pAkCD7k6w4beoDn-78" value="" style="shape=waypoint;sketch=0;fillStyle=solid;size=6;pointerEvents=1;points=[];fillColor=none;resizable=0;rotatable=0;perimeter=centerPerimeter;snapToPoint=1;" parent="1" vertex="1">
          <mxGeometry x="590" y="-205" width="20" height="20" as="geometry" />
        </mxCell>
        <mxCell id="bwUJ5pAkCD7k6w4beoDn-80" value="" style="ellipse;whiteSpace=wrap;html=1;aspect=fixed;" parent="1" vertex="1">
          <mxGeometry x="590" y="-210" width="20" height="20" as="geometry" />
        </mxCell>
        <mxCell id="bwUJ5pAkCD7k6w4beoDn-81" value="" style="shape=waypoint;sketch=0;fillStyle=solid;size=6;pointerEvents=1;points=[];fillColor=none;resizable=0;rotatable=0;perimeter=centerPerimeter;snapToPoint=1;" parent="1" vertex="1">
          <mxGeometry x="590" y="-210" width="20" height="20" as="geometry" />
        </mxCell>
        <mxCell id="bwUJ5pAkCD7k6w4beoDn-82" value="" style="rounded=1;whiteSpace=wrap;html=1;" parent="1" vertex="1">
          <mxGeometry x="670" y="-350" width="60" height="20" as="geometry" />
        </mxCell>
        <mxCell id="bwUJ5pAkCD7k6w4beoDn-83" value="" style="endArrow=classic;html=1;rounded=0;exitX=0.75;exitY=0;exitDx=0;exitDy=0;entryX=1;entryY=0.5;entryDx=0;entryDy=0;" parent="1" source="bwUJ5pAkCD7k6w4beoDn-82" target="bwUJ5pAkCD7k6w4beoDn-60" edge="1">
          <mxGeometry width="50" height="50" relative="1" as="geometry">
            <mxPoint x="380" y="-340" as="sourcePoint" />
            <mxPoint x="430" y="-390" as="targetPoint" />
            <Array as="points">
              <mxPoint x="715" y="-460" />
            </Array>
          </mxGeometry>
        </mxCell>
        <mxCell id="bwUJ5pAkCD7k6w4beoDn-86" value="x3" style="text;html=1;strokeColor=none;fillColor=none;align=center;verticalAlign=middle;whiteSpace=wrap;rounded=0;" parent="1" vertex="1">
          <mxGeometry x="710" y="-420" width="60" height="30" as="geometry" />
        </mxCell>
        <mxCell id="bwUJ5pAkCD7k6w4beoDn-87" value="" style="endArrow=classic;html=1;rounded=0;" parent="1" source="bwUJ5pAkCD7k6w4beoDn-53" edge="1">
          <mxGeometry width="50" height="50" relative="1" as="geometry">
            <mxPoint x="380" y="-340" as="sourcePoint" />
            <mxPoint x="270" y="-500" as="targetPoint" />
          </mxGeometry>
        </mxCell>
        <mxCell id="bwUJ5pAkCD7k6w4beoDn-88" value="" style="ellipse;whiteSpace=wrap;html=1;aspect=fixed;" parent="1" vertex="1">
          <mxGeometry x="260" y="-500" width="20" height="20" as="geometry" />
        </mxCell>
        <mxCell id="bwUJ5pAkCD7k6w4beoDn-89" value="" style="shape=waypoint;sketch=0;fillStyle=solid;size=6;pointerEvents=1;points=[];fillColor=none;resizable=0;rotatable=0;perimeter=centerPerimeter;snapToPoint=1;" parent="1" vertex="1">
          <mxGeometry x="260" y="-500" width="20" height="20" as="geometry" />
        </mxCell>
        <mxCell id="bwUJ5pAkCD7k6w4beoDn-90" value="..." style="text;html=1;strokeColor=none;fillColor=none;align=center;verticalAlign=middle;whiteSpace=wrap;rounded=0;" parent="1" vertex="1">
          <mxGeometry x="285" y="-580" width="60" height="30" as="geometry" />
        </mxCell>
        <mxCell id="bwUJ5pAkCD7k6w4beoDn-91" value="" style="endArrow=classic;html=1;rounded=0;exitX=0;exitY=0.417;exitDx=0;exitDy=0;exitPerimeter=0;" parent="1" source="bwUJ5pAkCD7k6w4beoDn-66" edge="1">
          <mxGeometry width="50" height="50" relative="1" as="geometry">
            <mxPoint x="380" y="-350" as="sourcePoint" />
            <mxPoint x="520" y="-339.99314285714286" as="targetPoint" />
          </mxGeometry>
        </mxCell>
        <mxCell id="bwUJ5pAkCD7k6w4beoDn-93" value="" style="rounded=1;whiteSpace=wrap;html=1;" parent="1" vertex="1">
          <mxGeometry x="430" y="-358" width="90" height="38" as="geometry" />
        </mxCell>
        <mxCell id="bwUJ5pAkCD7k6w4beoDn-94" value="Po 3 próbach" style="text;html=1;strokeColor=none;fillColor=none;align=center;verticalAlign=middle;whiteSpace=wrap;rounded=0;" parent="1" vertex="1">
          <mxGeometry x="510" y="-380" width="70" height="30" as="geometry" />
        </mxCell>
        <mxCell id="bwUJ5pAkCD7k6w4beoDn-95" value="Zablokowanie konta" style="text;html=1;strokeColor=none;fillColor=none;align=center;verticalAlign=middle;whiteSpace=wrap;rounded=0;" parent="1" vertex="1">
          <mxGeometry x="420" y="-358" width="100" height="30" as="geometry" />
        </mxCell>
        <mxCell id="bwUJ5pAkCD7k6w4beoDn-96" value="" style="endArrow=classic;html=1;rounded=0;" parent="1" edge="1">
          <mxGeometry width="50" height="50" relative="1" as="geometry">
            <mxPoint x="430" y="-343" as="sourcePoint" />
            <mxPoint x="380" y="-343" as="targetPoint" />
          </mxGeometry>
        </mxCell>
        <mxCell id="bwUJ5pAkCD7k6w4beoDn-97" value="" style="ellipse;whiteSpace=wrap;html=1;aspect=fixed;" parent="1" vertex="1">
          <mxGeometry x="220" y="-353" width="20" height="20" as="geometry" />
        </mxCell>
        <mxCell id="bwUJ5pAkCD7k6w4beoDn-98" value="" style="shape=waypoint;sketch=0;fillStyle=solid;size=6;pointerEvents=1;points=[];fillColor=none;resizable=0;rotatable=0;perimeter=centerPerimeter;snapToPoint=1;" parent="1" vertex="1">
          <mxGeometry x="220" y="-353" width="20" height="20" as="geometry" />
        </mxCell>
        <mxCell id="bwUJ5pAkCD7k6w4beoDn-99" value="" style="ellipse;whiteSpace=wrap;html=1;" parent="1" vertex="1">
          <mxGeometry x="290" y="-357" width="90" height="27" as="geometry" />
        </mxCell>
        <mxCell id="bwUJ5pAkCD7k6w4beoDn-100" value="...." style="text;html=1;strokeColor=none;fillColor=none;align=center;verticalAlign=middle;whiteSpace=wrap;rounded=0;" parent="1" vertex="1">
          <mxGeometry x="300" y="-358.5" width="60" height="30" as="geometry" />
        </mxCell>
        <mxCell id="bwUJ5pAkCD7k6w4beoDn-101" value="" style="endArrow=classic;html=1;rounded=0;exitX=0;exitY=0.5;exitDx=0;exitDy=0;" parent="1" source="bwUJ5pAkCD7k6w4beoDn-99" edge="1">
          <mxGeometry width="50" height="50" relative="1" as="geometry">
            <mxPoint x="380" y="-360" as="sourcePoint" />
            <mxPoint x="240" y="-343" as="targetPoint" />
          </mxGeometry>
        </mxCell>
      </root>
    </mxGraphModel>
  </diagram>
</mxfile>
